<svg xmlns="http://www.w3.org/2000/svg" version="1.1" xmlns:xlink="http://www.w3.org/1999/xlink" xmlns:svgjs="http://svgjs.dev/svgjs" width="1000" height="623" viewBox="0 0 1000 623"><g transform="matrix(1,0,0,1,-0.6060606060606233,0.2522267206477409)"><svg viewBox="0 0 396 247" data-background-color="#528265" preserveAspectRatio="xMidYMid meet" height="623" width="1000" xmlns="http://www.w3.org/2000/svg" xmlns:xlink="http://www.w3.org/1999/xlink"><g id="tight-bounds" transform="matrix(1,0,0,1,0.2400000000000091,-0.09999999999999432)"><svg viewBox="0 0 395.52 247.2" height="247.2" width="395.52"><g><svg></svg></g><g><svg viewBox="0 0 395.52 247.2" height="247.2" width="395.52"><mask id="21538c73-462f-4711-8d85-837e6c3c024c"><rect width="640" height="400" fill="white"></rect><g transform="matrix(1,0,0,1,39.55199999999999,89.23255339067964)"><svg viewBox="0 0 316.416 68.73489321864072" height="68.73489321864072" width="316.416"><g><svg viewBox="0 0 316.416 68.73489321864072" height="68.73489321864072" width="316.416"><g><svg viewBox="0 0 316.416 68.73489321864072" height="68.73489321864072" width="316.416"><g><svg viewBox="0 0 316.416 68.73489321864072" height="68.73489321864072" width="316.416"><g id="SvgjsG1132"><svg viewBox="0 0 316.416 68.73489321864072" height="68.73489321864072" width="316.416" id="SvgjsSvg1131"><g><svg viewBox="0 0 316.416 68.73489321864072" height="68.73489321864072" width="316.416"><g transform="matrix(1,0,0,1,0,0)"><svg width="316.416" viewBox="-1.1427185535430908 -43.5 217.34002685546875 48" height="68.73489321864072" data-palette-color="#ffffff"><path d="M17.4 0.5L17.4 0.5Q14.2 0.5 11.3-0.5 8.4-1.5 6.25-3.3 4.1-5.1 3.1-7.45L3.1-7.45Q2.6-8.5 3.13-9.4 3.65-10.3 4.9-10.55L4.9-10.55Q5.8-10.75 6.68-10.28 7.55-9.8 8-8.85L8-8.85Q8.6-7.6 9.98-6.55 11.35-5.5 13.3-4.85 15.25-4.2 17.4-4.2L17.4-4.2Q19.8-4.2 21.83-4.95 23.85-5.7 25.1-7.13 26.35-8.55 26.35-10.65L26.35-10.65Q26.35-13.3 24.28-15.4 22.2-17.5 17.45-18L17.45-18Q11.25-18.6 7.7-21.65 4.15-24.7 4.15-29.2L4.15-29.2Q4.15-32.5 6-34.8 7.85-37.1 11.03-38.3 14.2-39.5 18.1-39.5L18.1-39.5Q21.15-39.5 23.43-38.65 25.7-37.8 27.4-36.3 29.1-34.8 30.35-32.75L30.35-32.75Q31.05-31.65 30.93-30.68 30.8-29.7 29.95-29.15L29.95-29.15Q29-28.55 27.9-28.9 26.8-29.25 26.25-30.2L26.25-30.2Q25.45-31.65 24.3-32.65 23.15-33.65 21.6-34.23 20.05-34.8 17.95-34.8L17.95-34.8Q14.25-34.85 11.75-33.43 9.25-32 9.25-29.05L9.25-29.05Q9.25-27.55 10.03-26.18 10.8-24.8 12.88-23.8 14.95-22.8 18.85-22.4L18.85-22.4Q24.8-21.8 28.13-18.78 31.45-15.75 31.45-10.8L31.45-10.8Q31.45-7.95 30.28-5.85 29.1-3.75 27.13-2.33 25.15-0.9 22.63-0.2 20.1 0.5 17.4 0.5ZM62 0.05L62 0.05Q60.9 0.05 60.17-0.68 59.45-1.4 59.45-2.5L59.45-2.5 59.45-14.8Q59.45-17.65 58.4-19.45 57.35-21.25 55.57-22.13 53.8-23 51.5-23L51.5-23Q49.4-23 47.7-22.15 46-21.3 45-19.88 44-18.45 44-16.6L44-16.6 40.85-16.6Q40.85-19.75 42.37-22.23 43.9-24.7 46.55-26.15 49.2-27.6 52.5-27.6L52.5-27.6Q55.95-27.6 58.67-26.13 61.4-24.65 62.97-21.8 64.55-18.95 64.55-14.8L64.55-14.8 64.55-2.5Q64.55-1.4 63.82-0.68 63.1 0.05 62 0.05ZM41.45 0.05L41.45 0.05Q40.35 0.05 39.62-0.68 38.9-1.4 38.9-2.5L38.9-2.5 38.9-24.8Q38.9-25.95 39.62-26.65 40.35-27.35 41.45-27.35L41.45-27.35Q42.6-27.35 43.3-26.65 44-25.95 44-24.8L44-24.8 44-2.5Q44-1.4 43.3-0.68 42.6 0.05 41.45 0.05ZM41.45-9.95L41.45-9.95Q40.35-9.95 39.62-10.68 38.9-11.4 38.9-12.5L38.9-12.5 38.9-36.5Q38.9-37.65 39.62-38.35 40.35-39.05 41.45-39.05L41.45-39.05Q42.6-39.05 43.3-38.35 44-37.65 44-36.5L44-36.5 44-12.5Q44-11.4 43.3-10.68 42.6-9.95 41.45-9.95ZM84.45 0.2L84.45 0.2Q80.8 0.2 77.89-1.63 75-3.45 73.32-6.58 71.64-9.7 71.64-13.65L71.64-13.65Q71.64-17.6 73.47-20.75 75.3-23.9 78.42-25.73 81.55-27.55 85.45-27.55L85.45-27.55Q89.34-27.55 92.45-25.73 95.55-23.9 97.37-20.75 99.2-17.6 99.2-13.65L99.2-13.65 97.25-13.65Q97.25-9.7 95.57-6.58 93.9-3.45 91-1.63 88.09 0.2 84.45 0.2ZM85.45-4.3L85.45-4.3Q88-4.3 90-5.53 92-6.75 93.15-8.88 94.3-11 94.3-13.65L94.3-13.65Q94.3-16.35 93.15-18.48 92-20.6 90-21.83 88-23.05 85.45-23.05L85.45-23.05Q82.95-23.05 80.92-21.83 78.9-20.6 77.72-18.48 76.55-16.35 76.55-13.65L76.55-13.65Q76.55-11 77.72-8.88 78.9-6.75 80.92-5.53 82.95-4.3 85.45-4.3ZM96.65 0.05L96.65 0.05Q95.55 0.05 94.82-0.68 94.09-1.4 94.09-2.5L94.09-2.5 94.09-10.15 95.05-15.45 99.2-13.65 99.2-2.5Q99.2-1.4 98.47-0.68 97.75 0.05 96.65 0.05ZM109.84 0L109.84 0Q108.74 0 108.02-0.73 107.29-1.45 107.29-2.55L107.29-2.55 107.29-24.8Q107.29-25.95 108.02-26.65 108.74-27.35 109.84-27.35L109.84-27.35Q110.99-27.35 111.69-26.65 112.39-25.95 112.39-24.8L112.39-24.8 112.39-2.55Q112.39-1.45 111.69-0.73 110.99 0 109.84 0ZM109.84-31.8L109.84-31.8Q108.49-31.8 107.52-32.77 106.54-33.75 106.54-35.1L106.54-35.1Q106.54-36.45 107.52-37.43 108.49-38.4 109.84-38.4L109.84-38.4Q111.19-38.4 112.17-37.43 113.14-36.45 113.14-35.1L113.14-35.1Q113.14-33.75 112.17-32.77 111.19-31.8 109.84-31.8ZM139.59 0L139.59 0Q138.49 0 137.76-0.75 137.04-1.5 137.04-2.6L137.04-2.6 137.04-36.45Q137.04-37.6 137.76-38.33 138.49-39.05 139.59-39.05L139.59-39.05Q140.79-39.05 141.59-38.1L141.59-38.1 163.39-9.1 163.39-36.45Q163.39-37.6 164.14-38.33 164.89-39.05 165.99-39.05L165.99-39.05Q167.14-39.05 167.84-38.33 168.54-37.6 168.54-36.45L168.54-36.45 168.54-2.6Q168.54-1.5 167.84-0.75 167.14 0 165.99 0L165.99 0Q165.49 0 164.91-0.23 164.34-0.45 163.99-0.9L163.99-0.9 142.19-29.9 142.19-2.6Q142.19-1.5 141.46-0.75 140.74 0 139.59 0ZM181.09 0L181.09 0Q179.99 0 179.26-0.73 178.54-1.45 178.54-2.55L178.54-2.55 178.54-24.8Q178.54-25.95 179.26-26.65 179.99-27.35 181.09-27.35L181.09-27.35Q182.24-27.35 182.94-26.65 183.64-25.95 183.64-24.8L183.64-24.8 183.64-2.55Q183.64-1.45 182.94-0.73 182.24 0 181.09 0ZM181.09-31.8L181.09-31.8Q179.74-31.8 178.76-32.77 177.79-33.75 177.79-35.1L177.79-35.1Q177.79-36.45 178.76-37.43 179.74-38.4 181.09-38.4L181.09-38.4Q182.44-38.4 183.41-37.43 184.39-36.45 184.39-35.1L184.39-35.1Q184.39-33.75 183.41-32.77 182.44-31.8 181.09-31.8ZM198.13-17.1L195.58-17.1Q195.58-20.1 197.06-22.48 198.53-24.85 201.03-26.25 203.53-27.65 206.53-27.65L206.53-27.65Q209.53-27.65 211.01-26.68 212.48-25.7 212.13-24.35L212.13-24.35Q211.98-23.65 211.56-23.28 211.13-22.9 210.58-22.8 210.03-22.7 209.38-22.85L209.38-22.85Q206.18-23.5 203.63-22.95 201.08-22.4 199.61-20.9 198.13-19.4 198.13-17.1L198.13-17.1ZM195.63 0L195.63 0Q194.43 0 193.78-0.63 193.13-1.25 193.13-2.5L193.13-2.5 193.13-24.85Q193.13-26.05 193.78-26.7 194.43-27.35 195.63-27.35L195.63-27.35Q196.88-27.35 197.51-26.73 198.13-26.1 198.13-24.85L198.13-24.85 198.13-2.5Q198.13-1.3 197.51-0.65 196.88 0 195.63 0Z" opacity="1" transform="matrix(1,0,0,1,0,0)" fill="black" class="wordmark-text-0" id="SvgjsPath1130" stroke-width="7" stroke="black" stroke-linejoin="round"></path></svg></g></svg></g></svg></g></svg></g></svg></g></svg></g></svg></g></mask><g transform="matrix(1,0,0,1,39.55199999999999,89.23255339067964)"><svg viewBox="0 0 316.416 68.73489321864072" height="68.73489321864072" width="316.416"><g><svg viewBox="0 0 316.416 68.73489321864072" height="68.73489321864072" width="316.416"><g><svg viewBox="0 0 316.416 68.73489321864072" height="68.73489321864072" width="316.416"><g><svg viewBox="0 0 316.416 68.73489321864072" height="68.73489321864072" width="316.416"><g id="textblocktransform"><svg viewBox="0 0 316.416 68.73489321864072" height="68.73489321864072" width="316.416" id="textblock"><g><svg viewBox="0 0 316.416 68.73489321864072" height="68.73489321864072" width="316.416"><g transform="matrix(1,0,0,1,0,0)"><svg width="316.416" viewBox="-1.1427185535430908 -43.5 217.34002685546875 48" height="68.73489321864072" data-palette-color="#ffffff"><path d="M17.4 0.5L17.4 0.5Q14.2 0.5 11.3-0.5 8.4-1.5 6.25-3.3 4.1-5.1 3.1-7.45L3.1-7.45Q2.6-8.5 3.13-9.4 3.65-10.3 4.9-10.55L4.9-10.55Q5.8-10.75 6.68-10.28 7.55-9.8 8-8.85L8-8.85Q8.6-7.6 9.98-6.55 11.35-5.5 13.3-4.85 15.25-4.2 17.4-4.2L17.4-4.2Q19.8-4.2 21.83-4.95 23.85-5.7 25.1-7.13 26.35-8.55 26.35-10.65L26.35-10.65Q26.35-13.3 24.28-15.4 22.2-17.5 17.45-18L17.45-18Q11.25-18.6 7.7-21.65 4.15-24.7 4.15-29.2L4.15-29.2Q4.15-32.5 6-34.8 7.85-37.1 11.03-38.3 14.2-39.5 18.1-39.5L18.1-39.5Q21.15-39.5 23.43-38.65 25.7-37.8 27.4-36.3 29.1-34.8 30.35-32.75L30.35-32.75Q31.05-31.65 30.93-30.68 30.8-29.7 29.95-29.15L29.95-29.15Q29-28.55 27.9-28.9 26.8-29.25 26.25-30.2L26.25-30.2Q25.45-31.65 24.3-32.65 23.15-33.65 21.6-34.23 20.05-34.8 17.95-34.8L17.95-34.8Q14.25-34.85 11.75-33.43 9.25-32 9.25-29.05L9.25-29.05Q9.25-27.55 10.03-26.18 10.8-24.8 12.88-23.8 14.95-22.8 18.85-22.4L18.85-22.4Q24.8-21.8 28.13-18.78 31.45-15.75 31.45-10.8L31.45-10.8Q31.45-7.95 30.28-5.85 29.1-3.75 27.13-2.33 25.15-0.9 22.63-0.2 20.1 0.5 17.4 0.5ZM62 0.05L62 0.05Q60.9 0.05 60.17-0.68 59.45-1.4 59.45-2.5L59.45-2.5 59.45-14.8Q59.45-17.65 58.4-19.45 57.35-21.25 55.57-22.13 53.8-23 51.5-23L51.5-23Q49.4-23 47.7-22.15 46-21.3 45-19.88 44-18.45 44-16.6L44-16.6 40.85-16.6Q40.85-19.75 42.37-22.23 43.9-24.7 46.55-26.15 49.2-27.6 52.5-27.6L52.5-27.6Q55.95-27.6 58.67-26.13 61.4-24.65 62.97-21.8 64.55-18.95 64.55-14.8L64.55-14.8 64.55-2.5Q64.55-1.4 63.82-0.68 63.1 0.05 62 0.05ZM41.45 0.05L41.45 0.05Q40.35 0.05 39.62-0.68 38.9-1.4 38.9-2.5L38.9-2.5 38.9-24.8Q38.9-25.95 39.62-26.65 40.35-27.35 41.45-27.35L41.45-27.35Q42.6-27.35 43.3-26.65 44-25.95 44-24.8L44-24.8 44-2.5Q44-1.4 43.3-0.68 42.6 0.05 41.45 0.05ZM41.45-9.95L41.45-9.95Q40.35-9.95 39.62-10.68 38.9-11.4 38.9-12.5L38.9-12.5 38.9-36.5Q38.9-37.65 39.62-38.35 40.35-39.05 41.45-39.05L41.45-39.05Q42.6-39.05 43.3-38.35 44-37.65 44-36.5L44-36.5 44-12.5Q44-11.4 43.3-10.68 42.6-9.95 41.45-9.95ZM84.45 0.2L84.45 0.2Q80.8 0.2 77.89-1.63 75-3.45 73.32-6.58 71.64-9.7 71.64-13.65L71.64-13.65Q71.64-17.6 73.47-20.75 75.3-23.9 78.42-25.73 81.55-27.55 85.45-27.55L85.45-27.55Q89.34-27.55 92.45-25.73 95.55-23.9 97.37-20.75 99.2-17.6 99.2-13.65L99.2-13.65 97.25-13.65Q97.25-9.7 95.57-6.58 93.9-3.45 91-1.63 88.09 0.2 84.45 0.2ZM85.45-4.3L85.45-4.3Q88-4.3 90-5.53 92-6.75 93.15-8.88 94.3-11 94.3-13.65L94.3-13.65Q94.3-16.35 93.15-18.48 92-20.6 90-21.83 88-23.05 85.45-23.05L85.45-23.05Q82.95-23.05 80.92-21.83 78.9-20.6 77.72-18.48 76.55-16.35 76.55-13.65L76.55-13.65Q76.55-11 77.72-8.88 78.9-6.75 80.92-5.53 82.95-4.3 85.45-4.3ZM96.65 0.05L96.65 0.05Q95.55 0.05 94.82-0.68 94.09-1.4 94.09-2.5L94.09-2.5 94.09-10.15 95.05-15.45 99.2-13.65 99.2-2.5Q99.2-1.4 98.47-0.68 97.75 0.05 96.65 0.05ZM109.84 0L109.84 0Q108.74 0 108.02-0.73 107.29-1.45 107.29-2.55L107.29-2.55 107.29-24.8Q107.29-25.95 108.02-26.65 108.74-27.35 109.84-27.35L109.84-27.35Q110.99-27.35 111.69-26.65 112.39-25.95 112.39-24.8L112.39-24.8 112.39-2.55Q112.39-1.45 111.69-0.73 110.99 0 109.84 0ZM109.84-31.8L109.84-31.8Q108.49-31.8 107.52-32.77 106.54-33.75 106.54-35.1L106.54-35.1Q106.54-36.45 107.52-37.43 108.49-38.4 109.84-38.4L109.84-38.4Q111.19-38.4 112.17-37.43 113.14-36.45 113.14-35.1L113.14-35.1Q113.14-33.75 112.17-32.77 111.19-31.8 109.84-31.8ZM139.59 0L139.59 0Q138.49 0 137.76-0.75 137.04-1.5 137.04-2.6L137.04-2.6 137.04-36.45Q137.04-37.6 137.76-38.33 138.49-39.05 139.59-39.05L139.59-39.05Q140.79-39.05 141.59-38.1L141.59-38.1 163.39-9.1 163.39-36.45Q163.39-37.6 164.14-38.33 164.89-39.05 165.99-39.05L165.99-39.05Q167.14-39.05 167.84-38.33 168.54-37.6 168.54-36.45L168.54-36.45 168.54-2.6Q168.54-1.5 167.84-0.75 167.14 0 165.99 0L165.99 0Q165.49 0 164.91-0.23 164.34-0.45 163.99-0.9L163.99-0.9 142.19-29.9 142.19-2.6Q142.19-1.5 141.46-0.75 140.74 0 139.59 0ZM181.09 0L181.09 0Q179.99 0 179.26-0.73 178.54-1.45 178.54-2.55L178.54-2.55 178.54-24.8Q178.54-25.95 179.26-26.65 179.99-27.35 181.09-27.35L181.09-27.35Q182.24-27.35 182.94-26.65 183.64-25.95 183.64-24.8L183.64-24.8 183.64-2.55Q183.64-1.45 182.94-0.73 182.24 0 181.09 0ZM181.09-31.8L181.09-31.8Q179.74-31.8 178.76-32.77 177.79-33.75 177.79-35.1L177.79-35.1Q177.79-36.45 178.76-37.43 179.74-38.4 181.09-38.4L181.09-38.4Q182.44-38.4 183.41-37.43 184.39-36.45 184.39-35.1L184.39-35.1Q184.39-33.75 183.41-32.77 182.44-31.8 181.09-31.8ZM198.13-17.1L195.58-17.1Q195.58-20.1 197.06-22.48 198.53-24.85 201.03-26.25 203.53-27.65 206.53-27.65L206.53-27.65Q209.53-27.65 211.01-26.68 212.48-25.7 212.13-24.35L212.13-24.35Q211.98-23.65 211.56-23.28 211.13-22.9 210.58-22.8 210.03-22.7 209.38-22.85L209.38-22.85Q206.18-23.5 203.63-22.95 201.08-22.4 199.61-20.9 198.13-19.4 198.13-17.1L198.13-17.1ZM195.63 0L195.63 0Q194.43 0 193.78-0.63 193.13-1.25 193.13-2.5L193.13-2.5 193.13-24.85Q193.13-26.05 193.78-26.7 194.43-27.35 195.63-27.35L195.63-27.35Q196.88-27.35 197.51-26.73 198.13-26.1 198.13-24.85L198.13-24.85 198.13-2.5Q198.13-1.3 197.51-0.65 196.88 0 195.63 0Z" opacity="1" transform="matrix(1,0,0,1,0,0)" fill="#ffffff" class="wordmark-text-0" data-fill-palette-color="primary" id="text-0"></path></svg></g></svg></g></svg></g></svg></g></svg></g></svg></g></svg></g><g mask="url(#21538c73-462f-4711-8d85-837e6c3c024c)"><g transform="matrix(3.020969357781435, 0, 0, 3.020969357781435, 46.71153211092823, 1)"><svg version="1.1" xmlns="http://www.w3.org/2000/svg" xmlns:xlink="http://www.w3.org/1999/xlink" x="0" y="0" viewBox="0 0 100 81.16600036621094" enable-background="new 0 0 100 81.166" xml:space="preserve" width="100" height="81.16600036621094" class="icon-none" data-fill-palette-color="accent" id="none"><path d="M87.043 0H50 12.957L0 23.557l50 57.609 50-57.609L87.043 0zM83.635 6.345l7.59 13.801h-13.64L83.635 6.345zM77.168 6.043l-5.537 12.636L57.792 6.043H77.168zM64.273 20.146H50 35.727L50 7.113 64.273 20.146zM42.208 6.043L28.37 18.679 22.832 6.043H42.208zM16.365 6.345l6.05 13.801H8.775L16.365 6.345zM10.288 26.189h14.776l15.078 34.399L10.288 26.189zM31.663 26.189H50h18.338L50 68.022 31.663 26.189zM59.857 60.589l15.078-34.399h14.777L59.857 60.589z" fill="#ffffff" data-fill-palette-color="accent"></path></svg></g></g></svg></g><defs></defs></svg><rect width="395.52" height="247.2" fill="none" stroke="none" visibility="hidden"></rect></g></svg></g></svg>